<svg id="Layer_1" data-name="Layer 1" xmlns="http://www.w3.org/2000/svg" viewBox="0 0 125 50"><defs><style>.cls-1{fill:#fff;}</style></defs><path d="M9.59,11.91c.74,0,1.7.07,2.89.1s2.35.05,3.52.05c1.55,0,3,0,4.45-.05l3,0q6.18,0,9.24,2.36a7.35,7.35,0,0,1,3.06,6.1,9.49,9.49,0,0,1-.61,3.18A8.24,8.24,0,0,1,33,26.71a11.66,11.66,0,0,1-4.09,2.36,19.83,19.83,0,0,1-6.56.92H17.7V29h4.18a9.33,9.33,0,0,0,5-1.1A5.4,5.4,0,0,0,29.19,25,12.68,12.68,0,0,0,29.8,21,9.46,9.46,0,0,0,28.15,15c-1.1-1.41-3-2.11-5.74-2.11-1.39,0-2.3.27-2.74.82A5.81,5.81,0,0,0,19,17.06v24.1a9,9,0,0,0,.29,2.63A1.76,1.76,0,0,0,20.42,45a9,9,0,0,0,2.43.39v1c-.78-.07-1.76-.11-2.94-.13l-3.62,0-3.81,0c-1.19,0-2.15.06-2.89.13v-1A9.12,9.12,0,0,0,12.06,45a1.69,1.69,0,0,0,1.1-1.16,10,10,0,0,0,.26-2.63V17.06a9.9,9.9,0,0,0-.26-2.64A1.75,1.75,0,0,0,12,13.25a8.09,8.09,0,0,0-2.45-.36ZM17.8,29.16c1.65.07,3,.14,4,.22l2.53.22q1,.11,1.89.24a10.08,10.08,0,0,1,5.32,1.95,7.82,7.82,0,0,1,2.31,4.47l1.22,5a10.77,10.77,0,0,0,.94,3,1.66,1.66,0,0,0,1.53.87,2.16,2.16,0,0,0,1.29-.46,7.58,7.58,0,0,0,1.1-1.14l.68.53a8.67,8.67,0,0,1-2.34,2.26A6.13,6.13,0,0,1,35,47a5.81,5.81,0,0,1-3.57-1.1q-1.48-1.09-2.12-4.15l-1-4.86a28.55,28.55,0,0,0-1-3.62,5.92,5.92,0,0,0-1.48-2.41A3.93,3.93,0,0,0,23.14,30H17.89Z"/><path d="M51.12,20.71V41.8a3.72,3.72,0,0,0,.8,2.77,4,4,0,0,0,2.7.73v1c-.55,0-1.4-.08-2.55-.13s-2.33-.07-3.52-.07-2.3,0-3.5.07-2.09.09-2.67.13v-1a4,4,0,0,0,2.69-.73,3.68,3.68,0,0,0,.8-2.77V26.54a5.74,5.74,0,0,0-.72-3.23,3.16,3.16,0,0,0-2.77-1v-1c1,.1,2,.15,3,.15a26.85,26.85,0,0,0,3.08-.17A16.61,16.61,0,0,0,51.12,20.71Z"/><path d="M72.46,11.23a12.67,12.67,0,0,1,5.27.95,18.05,18.05,0,0,1,3.67,2.21c.65.49,1.14.54,1.48.17a5.09,5.09,0,0,0,.71-2.65h1.12c-.07,1.23-.12,2.72-.15,4.45s0,4,0,6.92H83.39c-.22-1.42-.44-2.59-.65-3.5a9.89,9.89,0,0,0-.83-2.33,8.43,8.43,0,0,0-1.38-1.89A8,8,0,0,0,77.08,13a12,12,0,0,0-4.33-.78,7.85,7.85,0,0,0-4.37,1.24A9.86,9.86,0,0,0,65.2,17a19.19,19.19,0,0,0-2,5.39,31.4,31.4,0,0,0-.68,6.8,29.76,29.76,0,0,0,.73,6.88,17.41,17.41,0,0,0,2.11,5.29,10.1,10.1,0,0,0,3.35,3.4A8.3,8.3,0,0,0,73.14,46a11.58,11.58,0,0,0,4.13-.8,7.4,7.4,0,0,0,3.4-2.45,7.85,7.85,0,0,0,1.87-3.28,31.28,31.28,0,0,0,.85-5h1.12q0,4.47,0,7.22c0,1.83.08,3.37.15,4.64H83.59a5.41,5.41,0,0,0-.66-2.63q-.47-.54-1.53.15a25.72,25.72,0,0,1-3.81,2.21,12.26,12.26,0,0,1-5.18,1A16.44,16.44,0,0,1,64,44.91a14.26,14.26,0,0,1-5.59-6,20.73,20.73,0,0,1-2-9.47,20.81,20.81,0,0,1,2.06-9.53,15.78,15.78,0,0,1,5.66-6.36A15.12,15.12,0,0,1,72.46,11.23Z"/><path d="M114.44,11.91c-.13,1.23-.22,2.43-.27,3.57s-.07,2-.07,2.65,0,1.2.05,1.75.07,1,.1,1.36h-1.12a20.5,20.5,0,0,0-1-4.91A4.78,4.78,0,0,0,110,13.78a8.23,8.23,0,0,0-3.87-.75h-3.35a7.85,7.85,0,0,0-2.36.27,1.68,1.68,0,0,0-1.09,1.07,8,8,0,0,0-.29,2.5V41.36a8.07,8.07,0,0,0,.29,2.48,1.69,1.69,0,0,0,1.09,1.09,7.85,7.85,0,0,0,2.36.27h3.16a9.26,9.26,0,0,0,4.4-.88,5.6,5.6,0,0,0,2.48-2.86A21.35,21.35,0,0,0,114.1,36h1.12a36.42,36.42,0,0,0-.15,3.7c0,.65,0,1.58.08,2.81s.13,2.5.26,3.8c-1.65-.07-3.51-.11-5.58-.13l-5.54,0h-4l-5.35,0c-1.89,0-3.67.06-5.32.13v-1A9.21,9.21,0,0,0,92.09,45a1.65,1.65,0,0,0,1.09-1.16,9.53,9.53,0,0,0,.27-2.63V17.06a9.42,9.42,0,0,0-.27-2.64,1.73,1.73,0,0,0-1.11-1.17,8.11,8.11,0,0,0-2.46-.36v-1l5.32.1c1.9,0,3.68.05,5.35.05h4l5.08,0Q112.21,12,114.44,11.91Zm-8.06,16.62v1h-8.8v-1Zm1.41-6.41c-.13,1.84-.19,3.25-.17,4.22s0,1.87,0,2.68,0,1.7,0,2.67.11,2.38.24,4.23h-1.12a29.1,29.1,0,0,0-.63-3.09,4.86,4.86,0,0,0-1.38-2.4,4.43,4.43,0,0,0-3.09-.93v-1a3.82,3.82,0,0,0,3-1.09,6.1,6.1,0,0,0,1.31-2.6c.24-1,.45-1.91.61-2.72Z"/><path d="M53.31,13a12.62,12.62,0,0,0,.27-10A12.63,12.63,0,0,0,46,9.5a12.56,12.56,0,0,0-.27,10A12.64,12.64,0,0,0,53.31,13Z"/><path class="cls-1" d="M52.46,4.92a7.55,7.55,0,0,1-.24,3.5,16.4,16.4,0,0,1-1.34,3.23,27.79,27.79,0,0,1-1.79,2.92c-.63.95-1.29,1.86-2,2.79a13.31,13.31,0,0,1,1.05-3.31c.45-1.06,1-2.07,1.51-3.06A34.61,34.61,0,0,0,52.46,4.92Z"/></svg>